<svg width="141" height="126" viewBox="0 0 141 126" fill="none" xmlns="http://www.w3.org/2000/svg">
<path d="M60.7808 123.999C58.8167 123.999 56.9065 123.357 55.3418 122.169L4.10779 83.2984C2.20658 81.8543 0.956912 79.7141 0.633693 77.3487C0.310474 74.9832 0.940181 72.5862 2.38428 70.685C3.82839 68.7837 5.96859 67.5341 8.33408 67.2109C10.6996 66.8876 13.0966 67.5173 14.9978 68.9615L58.5998 102.048L123.961 4.00546C124.617 3.02212 125.46 2.17764 126.443 1.52026C127.425 0.862868 128.528 0.405433 129.687 0.174076C130.846 -0.0572811 132.04 -0.0580287 133.199 0.171867C134.359 0.401763 135.462 0.857801 136.445 1.51395C137.429 2.1701 138.273 3.01351 138.93 3.99602C139.588 4.97853 140.045 6.0809 140.277 7.2402C140.508 8.39949 140.509 9.593 140.279 10.7526C140.049 11.9122 139.593 13.0151 138.937 13.9985L68.2688 119.991C67.4459 121.226 66.3305 122.238 65.022 122.937C63.7135 123.636 62.2524 124.001 60.7688 123.999H60.7808Z" fill="white"/>
</svg>
