<svg width="138" height="138" viewBox="0 0 138 138" fill="none" xmlns="http://www.w3.org/2000/svg">
<path d="M59.9112 68.75L1.83058 10.6694C-0.610194 8.22864 -0.610194 4.27136 1.83058 1.83058C4.27136 -0.610194 8.22864 -0.610194 10.6694 1.83058L68.75 59.9112L126.831 1.83058C129.271 -0.610194 133.229 -0.610194 135.669 1.83058C138.11 4.27136 138.11 8.22864 135.669 10.6694L77.5888 68.75L135.669 126.831C138.11 129.271 138.11 133.229 135.669 135.669C133.229 138.11 129.271 138.11 126.831 135.669L68.75 77.5888L10.6694 135.669C8.22864 138.11 4.27136 138.11 1.83058 135.669C-0.610194 133.229 -0.610194 129.271 1.83058 126.831L59.9112 68.75Z" fill="#FFF7F7"/>
</svg>
