<svg width="141" height="138" viewBox="0 0 141 138" fill="none" xmlns="http://www.w3.org/2000/svg">
<path d="M84.5182 68.5229L134.857 18.2944C139.052 14.1087 139.052 7.32499 134.857 3.13928C130.662 -1.04643 123.863 -1.04643 119.669 3.13928L69.3297 53.3678L18.9909 3.13928C14.796 -1.04643 7.99733 -1.04643 3.80243 3.13928C-0.392476 7.32499 -0.392476 14.1087 3.80243 18.2944L54.1413 68.5229L3.80243 118.751C-0.392476 122.937 -0.392476 129.721 3.80243 133.907C5.82756 135.927 8.57594 137.082 11.3243 137.082C14.0727 137.082 16.8211 136.072 18.8462 133.907L69.3297 83.6781L119.669 133.907C121.694 135.927 124.442 137.082 127.19 137.082C129.939 137.082 132.687 136.072 134.712 133.907C138.907 129.721 138.907 122.937 134.712 118.751L84.5182 68.5229Z" fill="white"/>
</svg>
